<?xml version="1.0" standalone="no"?>
<!DOCTYPE svg PUBLIC "-//W3C//DTD SVG 20010904//EN"
 "http://www.w3.org/TR/2001/REC-SVG-20010904/DTD/svg10.dtd">
<svg version="1.0" xmlns="http://www.w3.org/2000/svg"
 width="1022.000000pt" height="979.000000pt" viewBox="0 0 1022.000000 979.000000"
 preserveAspectRatio="xMidYMid meet">

<g transform="translate(0.000000,979.000000) scale(0.100000,-0.100000)"
fill="#ffffff" stroke="none">
<path d="M4112 8222 c-60 -22 -123 -77 -155 -137 -30 -57 -30 -164 1 -222 88
-168 311 -203 445 -69 160 160 52 425 -182 442 -39 3 -72 -1 -109 -14z"/>
<path d="M5074 7906 c-89 -28 -168 -101 -213 -196 l-26 -55 -5 -1860 -5 -1860
-24 -70 c-29 -88 -116 -220 -184 -279 -63 -56 -164 -110 -243 -131 -75 -19
-223 -19 -298 0 -92 24 -191 82 -264 153 -60 60 -67 64 -86 51 -112 -71 -202
-99 -323 -99 -111 0 -173 14 -273 63 -113 55 -211 151 -263 257 -69 142 -67
110 -67 973 l0 779 -27 -7 c-89 -21 -236 -157 -295 -270 -69 -133 -68 -124
-67 -1083 1 -471 5 -906 9 -967 14 -198 87 -349 271 -555 192 -216 231 -282
294 -500 4 -14 10 -146 14 -294 l6 -269 991 -1 992 -2 4 206 c4 177 8 215 28
275 99 309 380 534 720 575 50 6 368 10 780 10 608 0 703 2 751 16 173 51 300
197 330 380 15 93 1 175 -46 270 -40 82 -131 174 -207 212 -103 51 -122 52
-1000 52 l-818 0 -2 1993 -3 1992 -33 67 c-61 124 -166 189 -305 187 -40 0
-90 -6 -113 -13z m627 -4551 c33 -17 49 -49 49 -96 0 -65 -45 -99 -132 -99
-79 0 -213 -36 -303 -80 -49 -25 -117 -71 -174 -120 -80 -68 -99 -80 -130 -80
-45 0 -79 23 -97 65 -24 59 6 112 114 198 133 106 268 174 415 207 104 23 218
25 258 5z m-1512 -413 c22 -22 33 -49 51 -127 40 -180 132 -330 253 -415 67
-47 92 -82 92 -130 0 -91 -108 -127 -192 -65 -195 147 -309 318 -354 530 -28
133 -26 160 15 201 45 45 95 47 135 6z"/>
<path d="M7202 7862 c-60 -22 -96 -52 -122 -102 -48 -95 -33 -189 45 -266 66
-66 129 -84 213 -59 170 51 224 252 100 371 -54 52 -72 61 -134 69 -35 4 -64
0 -102 -13z"/>
<path d="M3992 7402 c-60 -22 -123 -77 -155 -137 -30 -57 -30 -164 1 -222 88
-168 311 -203 445 -69 160 160 52 425 -182 442 -39 3 -72 -1 -109 -14z"/>
<path d="M7671 7254 c-10 -7 -21 -24 -24 -36 -2 -13 -14 -68 -26 -123 -12 -55
-26 -111 -30 -125 -5 -14 -17 -61 -26 -105 -9 -44 -34 -152 -55 -240 -21 -88
-46 -196 -55 -240 -9 -44 -21 -91 -25 -105 -4 -14 -15 -61 -25 -105 -9 -44
-21 -98 -26 -120 -24 -94 -29 -114 -44 -185 -24 -112 -36 -162 -45 -190 -4
-14 -16 -61 -25 -105 -9 -44 -29 -134 -45 -200 -16 -66 -36 -154 -45 -195 -9
-41 -20 -91 -25 -110 -5 -19 -21 -87 -35 -150 -32 -140 -42 -178 -57 -230 -18
-65 -2 -83 93 -105 88 -20 126 -22 140 -8 5 5 16 40 25 78 37 163 55 242 64
275 5 19 16 69 25 110 8 41 20 92 25 113 21 78 29 114 45 187 21 100 35 160
45 190 4 14 16 61 25 105 9 44 29 134 45 200 16 66 36 154 44 195 9 41 21 91
25 110 5 19 14 53 20 75 5 22 17 74 26 115 8 41 20 93 26 115 19 70 28 109 39
160 5 28 25 115 44 195 19 80 42 181 51 225 9 44 21 90 26 103 13 33 11 78 -4
91 -8 6 -38 16 -68 22 -30 6 -71 14 -91 19 -26 5 -43 3 -57 -6z"/>
<path d="M6520 6848 c-30 -40 -60 -80 -67 -88 -6 -8 -28 -36 -47 -62 -20 -27
-52 -69 -72 -95 -19 -27 -41 -56 -49 -65 -7 -9 -62 -81 -122 -160 -59 -79
-111 -147 -116 -153 -4 -5 -29 -38 -55 -71 -26 -34 -56 -73 -66 -88 -11 -15
-30 -39 -43 -54 -37 -43 -39 -66 -6 -109 15 -21 30 -40 33 -43 3 -3 39 -50 80
-105 41 -55 80 -106 87 -115 7 -8 32 -42 57 -75 25 -33 53 -69 61 -80 9 -11
26 -33 38 -49 12 -16 40 -53 62 -82 22 -29 49 -65 60 -80 34 -47 98 -129 106
-134 3 -3 15 -19 25 -35 11 -17 35 -52 54 -77 l35 -47 228 -1 228 0 -11 21
c-7 11 -27 38 -46 59 -19 20 -34 40 -34 44 0 5 -62 89 -123 166 -7 9 -25 33
-42 55 -16 22 -35 46 -42 53 -7 8 -18 23 -24 34 -6 11 -18 29 -27 40 -34 40
-47 57 -66 83 -11 14 -28 36 -38 47 -10 12 -18 24 -18 28 0 3 -8 15 -18 26
-10 10 -31 37 -47 59 -17 22 -34 45 -40 51 -5 6 -19 23 -30 38 -11 15 -44 59
-72 97 -57 75 -57 77 -11 131 45 52 57 67 67 86 5 10 26 39 46 63 49 59 39 47
225 294 91 121 167 222 170 225 3 3 30 39 60 80 54 73 67 90 103 132 9 12 17
23 17 25 0 1 -102 3 -228 3 l-227 0 -55 -72z"/>
<path d="M7920 6917 c0 -2 8 -13 18 -25 35 -42 48 -59 102 -132 30 -41 57 -77
60 -80 3 -3 79 -104 170 -225 186 -247 176 -235 225 -294 20 -24 41 -53 46
-63 10 -19 22 -34 67 -86 46 -54 46 -56 -11 -131 -28 -38 -61 -82 -72 -97 -11
-15 -24 -32 -30 -38 -5 -6 -23 -29 -40 -51 -16 -22 -37 -49 -47 -59 -10 -11
-18 -23 -18 -26 0 -4 -8 -16 -18 -28 -10 -11 -27 -33 -38 -47 -19 -26 -32 -43
-66 -83 -9 -11 -21 -29 -27 -40 -6 -11 -17 -26 -24 -34 -7 -7 -26 -31 -42 -53
-17 -22 -32 -42 -35 -45 -9 -9 -206 -274 -214 -287 -6 -10 41 -13 221 -13
l228 1 35 47 c19 25 43 59 52 73 15 25 39 56 63 83 6 6 24 29 40 51 17 22 33
44 38 50 4 5 27 35 50 66 70 93 86 113 102 134 21 27 94 124 125 165 45 60
104 135 117 148 7 7 13 17 13 21 0 4 8 16 18 27 9 10 32 39 49 63 l32 44 -22
31 c-12 17 -26 36 -32 42 -5 6 -19 23 -30 39 -11 15 -41 55 -67 89 -63 81 -53
68 -138 181 -41 55 -86 114 -100 131 -14 16 -35 43 -47 60 -12 16 -43 58 -70
93 -26 35 -58 78 -71 95 -12 17 -28 38 -35 46 -6 8 -37 48 -67 88 l-55 72
-227 0 c-126 0 -228 -2 -228 -3z"/>
<path d="M4123 6546 c-108 -35 -194 -114 -246 -224 l-32 -67 -3 -1115 c-2
-828 0 -1129 9 -1170 26 -122 108 -229 217 -282 60 -30 75 -33 157 -33 82 0
96 3 157 34 82 41 159 119 196 198 l27 58 0 1165 0 1165 -31 65 c-37 79 -105
149 -179 186 -68 33 -203 43 -272 20z"/>
<path d="M3316 6030 c-155 -55 -261 -185 -292 -359 -17 -95 -20 -1485 -4
-1571 24 -124 105 -237 209 -287 51 -25 66 -28 166 -28 102 0 114 2 170 30
l60 30 0 63 c-1 34 -2 521 -3 1083 l-2 1020 -37 16 c-62 26 -196 28 -267 3z"/>
<path d="M6709 4661 c-96 -30 -159 -115 -159 -216 0 -64 27 -121 75 -164 93
-81 203 -83 295 -4 52 45 79 102 80 166 0 59 -18 100 -67 154 -59 65 -142 88
-224 64z"/>
</g>
</svg>
