<?xml version="1.0" encoding="UTF-8" standalone="no"?>
<!-- Created with Inkscape (http://www.inkscape.org/) -->

<svg
   version="1.1"
   id="svg2"
   width="4393.4668"
   height="4213.3335"
   viewBox="0 0 4393.4668 4213.3335"
   sodipodi:docname="vecteezy_web-portfolio-icon-style_6069316.eps"
   xmlns:inkscape="http://www.inkscape.org/namespaces/inkscape"
   xmlns:sodipodi="http://sodipodi.sourceforge.net/DTD/sodipodi-0.dtd"
   xmlns="http://www.w3.org/2000/svg"
   xmlns:svg="http://www.w3.org/2000/svg">
  <defs
     id="defs6" />
  <sodipodi:namedview
     id="namedview4"
     pagecolor="#ffffff"
     bordercolor="#000000"
     borderopacity="0.25"
     inkscape:showpageshadow="2"
     inkscape:pageopacity="0.0"
     inkscape:pagecheckerboard="0"
     inkscape:deskcolor="#d1d1d1" />
  <g
     id="g8"
     inkscape:groupmode="layer"
     inkscape:label="ink_ext_XXXXXX"
     transform="matrix(1.3333333,0,0,-1.3333333,0,4213.3333)">
    <g
       id="g10"
       transform="scale(0.1)">
      <path
         d="m 3170,28755 c 0,-333 271,-604 604,-604 333,0 604,271 604,604 0,332 -271,603 -604,603 -333,1 -604,-270 -604,-603"
         style="fill:#ffffff;fill-opacity:1;fill-rule:evenodd;stroke:none"
         id="path12" />
      <path
         d="m 7289,28755 c 0,-333 271,-604 604,-604 333,0 604,271 604,604 0,332 -271,603 -604,603 -333,1 -604,-270 -604,-603"
         style="fill:#ffffff;fill-opacity:1;fill-rule:evenodd;stroke:none"
         id="path14" />
      <path
         d="m 12011,29359 c -333,0 -604,-271 -604,-603 0,-333 271,-604 603,-604 333,0 604,271 604,604 0,332 -271,602 -603,603"
         style="fill:#ffffff;fill-opacity:1;fill-rule:evenodd;stroke:none"
         id="path16" />
      <path
         d="m 12011,27245 c -833,0 -1510,678 -1510,1511 0,832 677,1510 1510,1510 833,0 1511,-678 1511,-1510 -1,-833 -679,-1511 -1511,-1511 z M 0,29310 v -3399 h 32951 v 3399 c 0,1263 -1027,2290 -2290,2290 H 2290 C 1028,31600 0,30572 0,29310 Z m 5284,-555 c 0,-833 -678,-1511 -1510,-1511 -833,0 -1511,678 -1511,1511 0,832 678,1510 1511,1510 833,1 1510,-678 1510,-1510 z m 4118,0 c 0,-833 -678,-1511 -1510,-1511 -833,0 -1510,678 -1510,1511 0,832 678,1510 1510,1510 833,1 1510,-678 1510,-1510 v 0"
         style="fill:#ffffff;fill-opacity:1;fill-rule:evenodd;stroke:none"
         id="path18" />
      <path
         d="M 28981,19727 H 15676 c -250,0 -453,203 -453,453 0,250 203,453 453,453 h 13304 c 250,0 453,-203 453,-453 1,-249 -202,-453 -452,-453 z M 15676,16315 h 13304 c 250,0 453,-203 453,-453 0,-250 -203,-453 -453,-453 H 15676 c -250,0 -453,203 -453,453 0,250 203,453 453,453 z M 3970,3360 h 25011 c 250,0 453,-203 453,-453 0,-250 -203,-453 -453,-453 H 3970 c -250,0 -453,203 -453,453 0,250 203,453 453,453 z m 11706,4318 h 13304 c 250,0 453,-203 453,-453 0,-250 -203,-453 -453,-453 H 15676 c -250,0 -453,203 -453,453 0,251 203,453 453,453 z m -453,3865 c 0,250 203,453 453,453 h 13304 c 250,0 453,-203 453,-453 0,-250 -203,-453 -453,-453 H 15676 c -250,0 -453,203 -453,453 z M 0,25004 V 2290 C 0,1027 1027,0 2290,0 h 28371 c 1263,0 2290,1027 2290,2290 V 25004 H 0 Z m 11778,-4551 c 515,-1041 -352,-3124 -616,-3712 -59,-1161 -470,-1993 -1030,-2525 v -409 c 1702,-55 3069,-1456 3069,-3171 V 7916 c 0,-250 -203,-453 -453,-453 H 10857 5861 3970 c -250,0 -453,203 -453,453 v 2720 c 0,1715 1367,3116 3069,3171 v 411 c -548,520 -952,1327 -1024,2449 -667,1119 -640,2470 80,3729 764,1336 2111,2199 3348,2151 941,-37 1735,-593 2251,-1570 233,-103 418,-282 537,-524 v 0"
         style="fill:#ffffff;fill-opacity:1;fill-rule:evenodd;stroke:none"
         id="path20" />
      <path
         d="M 6678,12903 C 5433,12897 4423,11883 4423,10637 V 8371 h 984 v 2266 c 0,250 203,453 453,453 250,0 453,-203 453,-453 V 8371 h 4089 v 2266 c 0,250 203,453 453,453 250,0 453,-203 453,-453 V 8371 h 984 v 2266 c 0,1245 -1011,2260 -2255,2266 -239,-620 -903,-1061 -1681,-1061 -775,0 -1439,441 -1678,1061"
         style="fill:#ffffff;fill-opacity:1;fill-rule:evenodd;stroke:none"
         id="path22" />
      <path
         d="m 9225,13651 c -283,-105 -575,-156 -862,-156 h -3 c -288,0 -583,52 -868,157 v -279 c 26,-344 412,-623 867,-623 454,0 841,279 867,623 v 278 h -1"
         style="fill:#ffffff;fill-opacity:1;fill-rule:evenodd;stroke:none"
         id="path24" />
      <path
         d="m 7176,18572 c -680,-608 -717,-1519 -718,-1707 l 1,-9 c 61,-1688 1028,-2455 1901,-2455 1,0 2,0 2,0 867,1 1827,762 1896,2430 -174,1289 -389,1978 -502,2276 -1153,145 -2020,-35 -2580,-535"
         style="fill:#ffffff;fill-opacity:1;fill-rule:evenodd;stroke:none"
         id="path26" />
      <path
         d="m 8887,21645 c -881,0 -1883,-688 -2459,-1696 -268,-469 -412,-952 -434,-1419 142,250 331,498 579,719 811,726 2011,968 3568,720 133,-21 250,-101 319,-216 28,-49 206,-368 402,-1174 167,618 243,1193 104,1474 -34,68 -72,98 -146,114 -137,31 -252,123 -312,250 -372,788 -894,1201 -1555,1227 -23,-1 -44,0 -66,1"
         style="fill:#ffffff;fill-opacity:1;fill-rule:evenodd;stroke:none"
         id="path28" />
    </g>
  </g>
</svg>
